<?xml version="1.0" encoding="UTF-8"?>
<svg xmlns="http://www.w3.org/2000/svg" id="Layer_2" data-name="Layer 2" viewBox="0 0 1730.21 288.24">
  <defs>
    <style>
      .cls-1 {
        fill: none;
      }

      .cls-2 {
        fill: #fff;
      }

      .cls-3 {
        fill: #ff844b;
      }

      .cls-4 {
        fill: #191442;
      }

      .cls-5 {
        fill: #2f2f6b;
      }
    </style>
  </defs>
  <g id="Layer_1-2" data-name="Layer 1">
    <g>
      <g>
        <path class="cls-4" d="m778.5,176.03c0-62.63-43.84-113.33-109.65-113.33s-110.59,48.47-110.59,112.82,47.7,112.73,110.59,112.73c43.93,0,80.39-22.99,99.44-61.6h-50.02c-11.93,12.78-29.17,20.16-49.42,20.16-35.26,0-60.4-21.45-65.89-56.28h174.59c.51-4.89.94-9.69.94-14.5Zm-174.42-21.45c7.21-31.92,31.49-51.99,64.77-51.99s57.4,19.3,65.29,51.99h-130.07Z"></path>
        <path class="cls-4" d="m1001.15,153.52v130.75h-44.22v-121.75c0-39.07-17-59.82-49.35-59.82-30.04,0-52.35,21.5-56.92,52.99v128.43h-45.1V66.81l45.1-.06v24.44c16.43-17.65,40.6-28.16,68.78-28.16h0c50.3,0,81.71,37.5,81.71,90.49Z"></path>
        <path class="cls-4" d="m1136.48,244.1v40.17h-32.87c-47.12,0-76.21-29.08-76.21-76.6l-.19-140.75,109.26-.13v36.03h-64.85v101.37c0,25.65,14.27,39.92,40.32,39.92h24.54Z"></path>
        <path class="cls-4" d="m1260.4,288.24c-59.08,0-97.84-38.19-97.84-96.07v-125.4h44.22v119.2c0,37.36,20.41,60.05,53.62,60.05s53.5-23.09,53.5-60.05v-119.2h44.22v125.4c0,57.88-38.36,96.07-97.72,96.07h0Z"></path>
        <rect class="cls-4" x="1384.2" y="66.86" width="45.11" height="217.26"></rect>
        <polygon class="cls-4" points="560.61 66.83 475.49 284.15 435.78 284.15 350.57 66.83 399.05 66.83 455.59 211.23 512.22 66.83 560.61 66.83"></polygon>
        <path class="cls-4" d="m1685.1,66.81v22.87c-19.06-17.03-44.47-27.04-73.47-27.04-64.07,0-111.99,48.05-111.99,112.69s47.92,112.91,111.99,112.91c28.99,0,54.41-10.09,73.47-27.2v23.03h45.11V66.81h-45.11Zm0,114.15c-2.6,37.66-31.34,64.95-69.98,64.95-40.55,0-70.46-30.32-70.46-70.58s29.92-70.58,70.46-70.58,67.38,27.29,69.98,64.95c.13,1.86.2,3.73.2,5.63s-.07,3.78-.2,5.63Z"></path>
        <polygon class="cls-4" points="1504.14 66.78 1504.14 111 1429.31 111 1429.31 284.12 1384.21 284.12 1384.21 66.86 1429.31 66.86 1429.31 102 1455.73 66.78 1504.14 66.78"></polygon>
        <rect class="cls-4" x="1027.22" width="44.52" height="44.52"></rect>
      </g>
      <g>
        <path class="cls-2" d="m255.02,277.59c1.38-1.34,2.57-2.85,3.6-4.47-1.01,1.64-2.22,3.15-3.6,4.47Z"></path>
        <path class="cls-2" d="m258.32,32.91c-.61-.93-1.28-1.81-1.99-2.63.75.83,1.41,1.71,1.99,2.63Z"></path>
        <path class="cls-2" d="m260.37,36.82c-.43-1.03-.93-2.02-1.47-2.98.58.94,1.08,1.96,1.47,2.98Z"></path>
        <path class="cls-2" d="m261.29,267c.3-1.09.51-2.2.66-3.35-.13,1.14-.36,2.25-.66,3.35Z"></path>
        <path class="cls-2" d="m262.13,45.17v.6c0-.41-.02-.81-.03-1.21.02.2.03.41.03.61Z"></path>
        <path class="cls-2" d="m262.13,260.71v.61c0,.2-.02.4-.03.6.02-.4.03-.8.03-1.21Z"></path>
        <path class="cls-2" d="m262.13,45.77v214.94c0,.41-.02.81-.03,1.21-.03.58-.08,1.16-.15,1.74-.15,1.14-.36,2.25-.66,3.35-.17.55-.33,1.08-.51,1.61-.13.35-.27.7-.4,1.04-.25.61-.53,1.19-.81,1.77-.3.58-.61,1.13-.94,1.67v.02c-1.03,1.62-2.22,3.13-3.6,4.47-1.38,1.34-2.92,2.52-4.59,3.5-.31.18-.65.36-.96.53l-.99.5c-.63.28-1.26.55-1.92.8-.4.13-.81.27-1.21.4l-1.09.3c-1.84.45-3.74.7-5.72.7H23.58c-1.97,0-3.88-.23-5.7-.7-.36-.1-.73-.2-1.08-.3-.41-.12-.83-.25-1.23-.4-.96-.35-1.89-.75-2.78-1.21-.45-.25-.88-.48-1.29-.73h-.02c-.43-.27-.85-.53-1.24-.81h-.02c-.4-.3-.8-.58-1.19-.88h-.02c-.76-.63-1.51-1.29-2.2-1.99-.35-.35-.68-.71-1.01-1.09-.48-.56-.93-1.13-1.36-1.72-.22-.3-.43-.6-.63-.91-.2-.3-.38-.61-.58-.93-.36-.65-.71-1.29-1.03-1.97-.13-.27-.25-.55-.36-.83-.18-.4-.35-.81-.48-1.23-.12-.35-.25-.71-.35-1.06-.33-1.08-.58-2.19-.75-3.33-.05-.3-.08-.61-.12-.93-.03-.15-.05-.3-.05-.45-.03-.3-.05-.61-.07-.93-.02-.4-.03-.8-.03-1.21V45.77c0-.4.02-.8.03-1.18.02-.5.05-.98.12-1.46.03-.3.07-.6.12-.88.05-.38.12-.76.2-1.13.07-.38.15-.75.25-1.11.08-.36.18-.73.3-1.09.1-.35.23-.71.35-1.06.13-.41.3-.83.48-1.23.12-.28.23-.56.36-.83.17-.35.31-.68.5-.99.18-.38.38-.75.61-1.11.17-.27.33-.53.5-.8.2-.31.41-.61.63-.91.22-.3.43-.6.66-.88.2-.28.43-.56.7-.85.71-.83,1.49-1.62,2.34-2.34.28-.23.56-.46.85-.7.28-.25.58-.46.88-.66.89-.65,1.84-1.23,2.82-1.74.6-.31,1.21-.6,1.84-.86,2.8-1.16,5.85-1.81,9.06-1.81h214.95c3.55,0,6.91.78,9.94,2.19.25.12.48.23.73.35.75.38,1.46.81,2.17,1.26.3.2.6.4.89.61.6.43,1.18.89,1.72,1.36.41.36.81.75,1.21,1.13.38.4.76.8,1.13,1.21.71.83,1.38,1.71,1.99,2.63.2.3.38.61.58.93.55.96,1.04,1.96,1.47,2.98.13.35.26.7.4,1.04.18.53.36,1.06.51,1.61.15.55.26,1.09.38,1.66.15.75.26,1.51.35,2.27.03.38.07.76.08,1.16s.03.8.03,1.21Z"></path>
        <path class="cls-2" d="m.03,261.92c-.02-.2-.03-.4-.03-.6v-.61c0,.41.02.81.03,1.21Z"></path>
        <path class="cls-2" d="m.03,44.59c-.02.38-.03.78-.03,1.18v-.6c0-.2.02-.38.03-.58Z"></path>
        <g>
          <path class="cls-3" d="m131.09,81.89v15.54l131.04,36.04v127.84c-.31,12.74-10.74,22.98-23.58,22.98H23.6c-12.61,0-22.93-9.93-23.56-22.39V44.56c.63-12.48,10.95-22.39,23.56-22.39h214.95c12.84,0,23.27,10.24,23.58,23v.68l-131.04,36.04Z"></path>
          <g>
            <path class="cls-5" d="m173.86,239.84c-11.78-.74-23.88-1.2-36.19-1.31-2.2-.02-4.39-.04-6.59-.04V107.37h18.47l24.31,132.47Z"></path>
            <path class="cls-4" d="m131.08,107.37v131.13h-.02c-2.2,0-4.38.02-6.55.04-12.31.11-24.38.54-36.19,1.29l24.31-132.45h18.45Z"></path>
          </g>
          <g>
            <polygon class="cls-5" points="135.93 62.98 131.09 62.98 131.09 47.9 133.17 47.9 135.93 62.98"></polygon>
            <polygon class="cls-4" points="126.24 62.98 131.09 62.98 131.09 47.9 129 47.9 126.24 62.98"></polygon>
          </g>
          <g>
            <polygon class="cls-5" points="143.42 73.61 131.09 73.61 131.09 55.33 140.05 55.33 143.42 73.61"></polygon>
            <polygon class="cls-4" points="131.09 55.33 131.09 73.61 118.75 73.61 122.1 55.33 131.09 55.33"></polygon>
          </g>
          <path class="cls-3" d="m137.67,212.3v26.24c-2.2-.02-4.39-.04-6.59-.04h-.02c-2.2,0-4.38.02-6.55.04v-26.24h13.16Z"></path>
          <path class="cls-4" d="m262.13,252.14v9.18c-.31,12.74-10.74,22.98-23.58,22.98H23.6c-12.61,0-22.93-9.93-23.56-22.39v-9.78c28.37-6.46,60.78-10.9,95.55-12.71.5-.03.98-.07,1.47-.08.48-.02.98-.05,1.47-.07.98-.05,1.96-.08,2.95-.13,1.39-.08,2.8-.13,4.21-.18.85-.03,1.69-.05,2.54-.08,1.76-.07,3.51-.12,5.29-.15.3,0,.61-.02.91-.02.65-.02,1.31-.05,1.99-.05.66-.02,1.33-.03,1.99-.03.27-.02.51-.02.78-.02h.18c1.14-.03,2.29-.05,3.43-.05.88-.02,1.77-.03,2.67-.03.27-.02.55-.02.83-.02,1.59-.02,3.18-.02,4.77-.02h.02c1.61,0,3.2,0,4.81.02.28,0,.55,0,.83.02.89,0,1.81.02,2.7.03,1.08,0,2.17.02,3.25.05,1.72.02,3.45.05,5.15.1.28,0,.56.02.85.02,1.66.03,3.31.08,4.95.15h.07c.93.02,1.86.05,2.78.08,2.3.1,4.59.18,6.86.31.75.02,1.51.05,2.25.1,2.07.1,4.11.22,6.15.35.71.02,1.43.07,2.14.12,32.03,2.02,61.89,6.28,88.27,12.3Z"></path>
        </g>
        <path class="cls-1" d="m131.09,81.89v15.54l131.04,36.04v127.84c-.31,12.74-10.74,22.98-23.58,22.98H23.6c-12.61,0-22.93-9.93-23.56-22.39-.02-.4-.03-.8-.03-1.21V45.77c0-.41.02-.81.03-1.21.63-12.48,10.95-22.39,23.56-22.39h214.95c12.84,0,23.27,10.24,23.58,23v.68l-131.04,36.04Z"></path>
      </g>
    </g>
  </g>
</svg>
